<svg width="16" height="16" viewBox="0 0 16 16" fill="none" xmlns="http://www.w3.org/2000/svg">
<path d="M8.30631 15.1667C8.19297 15.1667 8.07964 15.1667 7.96631 15.1601C4.23297 14.9934 1.11297 11.9867 0.852973 8.32008C0.626307 5.17341 2.44631 2.23341 5.37964 1.00008C6.21297 0.65341 6.65297 0.920076 6.83964 1.11341C7.02631 1.30008 7.28631 1.73341 6.93964 2.52674C6.63297 3.23341 6.47964 3.98674 6.48631 4.76008C6.49964 7.71341 8.95297 10.2201 11.9463 10.3401C12.3796 10.3601 12.8063 10.3267 13.2196 10.2534C14.0996 10.0934 14.4663 10.4467 14.6063 10.6734C14.7463 10.9001 14.9063 11.3867 14.373 12.1067C12.9596 14.0401 10.713 15.1667 8.30631 15.1667ZM1.84631 8.24674C2.07297 11.4201 4.77964 14.0201 8.00631 14.1601C10.1996 14.2667 12.2796 13.2667 13.5596 11.5201C13.6596 11.3801 13.7063 11.2801 13.7263 11.2267C13.6663 11.2201 13.5596 11.2134 13.393 11.2467C12.9063 11.3334 12.3996 11.3667 11.8996 11.3467C8.37964 11.2067 5.49964 8.25341 5.47964 4.77341C5.47964 3.85341 5.65964 2.96674 6.02631 2.13341C6.09297 1.98674 6.10631 1.88674 6.11297 1.83341C6.05297 1.83341 5.94631 1.84674 5.77297 1.92008C3.23297 2.98674 1.65964 5.53341 1.84631 8.24674Z" fill="#1E1E1E"/>
</svg>
