<svg xmlns="http://www.w3.org/2000/svg" enable-background="new 0 0 500 500" viewBox="0 0 500 500"><path fill="#F9E8DE" d="M28.18,285.72c-0.12-0.48-0.24-0.97-0.34-1.46c-2.68-11.75-3.92-23.78-3.32-35.83
		c0.2-3.9,0.57-7.8,1.14-11.69c1.81-12.11,6.2-24.09,12.9-34.47c3.99-6.21,8.83-11.86,14.43-16.64
		c17.18-14.69,37.22-11.97,58.12-17.04c14.84-3.61,29.53-8.27,43.18-15.23c13.65-6.97,26.03-16.26,35.97-27.98
		c11.41-13.48,14.67-29.18,23.37-43.68c2.76-4.6,7.35-9.65,14.17-14.11c3.38-2.58,7.05-4.83,10.99-6.6c3.95-1.79,8.17-3.1,12.7-3.82
		c21.12-3.41,43.48,4.18,60.96,16.49c18.66,13.16,33.64,29.96,44.62,48.93c7.04,12.13,12.41,25.12,16.11,38.63
		c7.68,28.21,7.93,58.58,0.03,87.58c-22.78,83.66-99.66,159.61-189.46,161.66c-0.84,0.01-1.65,0.02-2.5,0.02
		c-0.5,0.03-1.03,0.02-1.54,0.01c-2.66,0-5.34-0.09-7.99-0.25c-6.96-0.43-13.87-1.35-20.65-2.84c-5.34-1.18-10.58-2.71-15.71-4.57
		c-5.93-2.17-11.72-4.53-17.29-7.12c-4.41-2.02-8.7-4.19-12.86-6.53c-9.49-5.28-18.31-11.38-26.45-18.46
		c-3.94-3.41-7.72-7.05-11.3-10.96c-4.78-5.15-9.25-10.75-13.39-16.84c-8.02-11.76-14.89-24.62-19.98-38.11
		C31.71,298.59,29.72,292.19,28.18,285.72z"/><path fill="#808C5B" d="M200.08,240.23l-19.02,6.49l16.22,5.46c-4.36,14.36-11.36,23.64-20.25,24.89
					c-19.71,2.76-41.3-35.08-48.23-84.53c-2.45-17.51-2.75-34.13-1.19-48.41l18.68-6.52l-17.82-0.04
					c3.49-22.52,11.86-37.91,23.49-39.54c19.71-2.76,41.32,35.08,48.25,84.52C203.21,203.98,202.96,224.1,200.08,240.23z"/><path fill="none" stroke="#323042" stroke-miterlimit="10" stroke-width="1.405" d="M156.62,147c0,0,5.85,33.93,10.01,67.54
					c2.26,18.27,9.09,56.42,14.86,87.45"/><path fill="#808C5B" d="M259.36,175.68c-13.8,47.98-40.49,82.42-59.62,76.92c-19.15-5.51-23.47-48.86-9.67-96.84
					c13.79-47.97,40.49-82.42,59.64-76.91c14.8,4.26,20.73,31.16,16.27,65.35l-24.55,9.57l21.83,6.28
					C262.18,165.16,260.88,170.4,259.36,175.68z"/><path fill="none" stroke="#323042" stroke-miterlimit="10" stroke-width="1.405" d="M199.75,252.6
					c-19.15-5.51-23.47-48.86-9.67-96.84"/><path fill="none" stroke="#323042" stroke-miterlimit="10" stroke-width="1.405" d="M242.6,103.52c0,0-16.11,32.31-28.2,82.26
					c-6.92,28.57-17.2,77.94-24.75,114.95"/><path fill="#F9E8DE" d="M310.64,50.13c0,0,0.56,0.24,1.61,0.68c1.05,0.45,2.58,1.14,4.52,2.06c3.72,2.05,9.27,4.8,15.16,9.19
				c5.89,4.37,12.75,9.63,19.25,16.2c6.55,6.53,12.77,14.24,18.39,22.39c5.4,8.29,10.15,17.04,13.57,25.67
				c3.54,8.58,5.58,17.04,7.11,24.23c0.45,1.78,0.65,3.55,0.91,5.2c0.22,1.67,0.48,3.23,0.56,4.73c0.2,2.99,0.41,5.57,0.52,7.7
				c-0.02,4.27-0.03,6.71-0.03,6.71s-0.8-2.29-2.19-6.31c-0.56-2.02-1.55-4.4-2.53-7.14c-0.47-1.37-1.12-2.79-1.69-4.31
				c-0.61-1.51-1.12-3.12-1.8-4.77c-2.43-6.66-6.18-14.02-10.12-21.81c-4.08-7.73-8.65-15.83-13.93-23.5
				c-5.08-7.79-10.8-15.16-16.31-22c-5.63-6.71-10.9-13.12-15.96-18.11c-5.01-5.02-9.07-9.48-12.22-12.26
				c-1.5-1.49-2.71-2.63-3.55-3.4C311.09,50.54,310.64,50.13,310.64,50.13z"/><path fill="#F9E8DE" d="M111.96,321.87c-1.5,0-2.98-0.22-4.42-0.65c-5.13-1.53-9.06-5.51-10.52-10.67L64.45,195.17l29.87-8.43
					l32.58,115.38c1.13,3.99,0.63,8.18-1.39,11.8c-2.02,3.62-5.33,6.23-9.33,7.36C114.79,321.67,113.37,321.87,111.96,321.87
					L111.96,321.87z"/><path fill="#FFF" d="M93.97,187.35l32.44,114.9c2.26,7.99-2.38,16.29-10.37,18.55c-1.36,0.39-2.74,0.57-4.08,0.57
					c-1.46,0-2.9-0.22-4.27-0.63c-4.77-1.42-8.73-5.18-10.18-10.33l-32.44-114.9L93.97,187.35 M94.66,186.12l-0.96,0.27l-28.91,8.16
					l-0.96,0.27l0.27,0.96l32.44,114.9c1.5,5.32,5.56,9.43,10.85,11.01c1.48,0.44,3.01,0.67,4.56,0.67c1.46,0,2.93-0.2,4.35-0.61
					c8.5-2.4,13.46-11.27,11.06-19.78l-32.44-114.9L94.66,186.12L94.66,186.12z"/><path fill="#D75967" d="M116.03,320.79L116.03,320.79c7.98-2.25,12.63-10.55,10.38-18.54l-22.18-78.56l-28.91,8.16l22.18,78.56
				C99.75,318.4,108.05,323.05,116.03,320.79z"/><path fill="#323042" d="M65.06,195.51l32.44,114.9c1.45,5.14,5.41,8.91,10.18,10.33L71.79,193.61L65.06,195.51z" opacity=".2"/><path fill="#575666" d="M54.5,162.73l7.53,26.66l31.34-8.85l-7.53-26.66c-0.39-1.4-1.84-2.21-3.24-1.81l-26.28,7.42
				C54.91,159.88,54.1,161.34,54.5,162.73z"/><path fill="#323042" d="M61.59,187.87l0.43,1.52l31.34-8.85l-0.43-1.52c-0.03-0.01-0.07,0.01-0.1,0.01l-31.14,8.79
				C61.66,187.83,61.62,187.85,61.59,187.87z"/><path fill="#323042" d="M85.61,177.33L85.61,177.33c0.58-0.16,0.91-0.76,0.75-1.34l-4.68-16.58c-0.16-0.58-0.76-0.91-1.34-0.75
					l0,0c-0.58,0.16-0.91,0.76-0.75,1.34l4.68,16.58C84.43,177.16,85.03,177.5,85.61,177.33z"/><path fill="#323042" d="M79.39,179.09L79.39,179.09c0.58-0.16,0.91-0.76,0.75-1.34l-4.68-16.58c-0.16-0.58-0.76-0.91-1.34-0.75
					h0c-0.58,0.16-0.91,0.76-0.75,1.34l4.68,16.58C78.21,178.92,78.81,179.25,79.39,179.09z"/><path fill="#323042" d="M73.17,180.85L73.17,180.85c0.58-0.16,0.91-0.76,0.75-1.34l-4.68-16.58c-0.16-0.58-0.76-0.91-1.34-0.75
					l0,0c-0.58,0.16-0.91,0.76-0.75,1.34l4.68,16.58C71.99,180.67,72.59,181.01,73.17,180.85z"/><path fill="#323042" d="M66.94,182.6L66.94,182.6c0.58-0.16,0.91-0.76,0.75-1.34l-4.68-16.58c-0.16-0.58-0.76-0.91-1.34-0.75
					l0,0c-0.58,0.16-0.91,0.76-0.75,1.34l4.68,16.58C65.77,182.43,66.37,182.77,66.94,182.6z"/><path fill="#575666" d="M61.95,189.41l31.48-8.89c0.83-0.23,1.69,0.25,1.92,1.08l0.98,3.47c0.23,0.83-0.25,1.69-1.08,1.92
				l-31.48,8.89c-0.83,0.23-1.69-0.25-1.92-1.08l-0.98-3.47C60.64,190.5,61.12,189.64,61.95,189.41z"/><g><path fill="#FFF" d="M118.88,292.82c0.66-0.19,1.05-0.87,0.86-1.54l-25.04-88.71c-0.19-0.66-0.87-1.05-1.54-0.86
				s-1.05,0.87-0.86,1.54l25.04,88.71C117.53,292.62,118.21,293.01,118.88,292.82z"/></g><g><path fill="#323042" d="M450.2,139.81l-4.81,9.51L236.56,141L201.9,413.82c-4.37,0.2-10.71,0.51-10.71,0.51l9.65,7.84
			l201.65,27.71l56.89-300L450.2,139.81z"/><polygon fill="#575666" points="191.19 414.33 394.17 442.47 450.2 139.81 225.86 130.59"/><path fill="#575666" d="M306.82,125.3c3.76-11.16,14.47-19.03,26.69-18.48c12.18,0.54,21.85,9.28,24.29,20.63l22.12,0.93
			c2.7,0.11,4.72,2.43,4.5,5.18l-1.32,16.79c-0.21,2.7-2.55,4.8-5.22,4.69l-94.6-3.66c-2.74-0.11-4.89-2.41-4.8-5.15l0.59-17.05
			c0.1-2.78,2.43-4.95,5.2-4.83L306.82,125.3z"/><path fill="#EDE1DA" d="M229.07,145.85c0,0-7.23,185.67-59.77,256.18l201.39,16.2c0,0,54.69-110.42,61.57-262.46L229.07,145.85z
					"/><path fill="#FFF" d="M229.81,136.41c0,0-22.63,184.35-81.98,250.99l202.71,30.81c0,0,57.59-104.84,75.67-268.74
					L229.81,136.41z"/><polygon fill="#D75967" points="376.3 193.13 263.61 188.76 268.6 163.07 382.5 167.93"/><path fill="#FFF" d="M284.19,178.01l-4.49-0.18l-1.02,5.06l-3.68-0.15l2.52-12.66l3.7,0.15l-0.96,4.77l4.5,0.18l0.97-4.77
						l3.69,0.15l-2.58,12.64l-3.67-0.15L284.19,178.01z"/><path fill="#FFF" d="M291.53,170.67l3.68,0.15l-2.61,12.62l-3.66-0.15L291.53,170.67z"/><path fill="#FFF" d="M306.25,171.28l3.91,0.16l-7.21,12.41l-4.68-0.19l-1.93-12.8l3.94,0.16l1.08,9.24L306.25,171.28z"/><path fill="#FFF" d="M313.43,176.59l8.43,0.34l-0.64,2.9l-8.42-0.34L313.43,176.59z"/><path fill="#FFF" d="M328.47,172.21l10.58,0.44l-0.63,2.79l-3.48-0.14l-2.2,9.75l-3.62-0.14l2.18-9.76l-3.45-0.14
						L328.47,172.21z"/><path fill="#FFF" d="M348.11,175.85l-4.71-0.19l-0.47,2.05l4.15,0.17l-0.61,2.64l-4.15-0.17l-0.52,2.25l4.7,0.19l-0.64,2.77
						l-8.3-0.33l2.85-12.53l8.34,0.35L348.11,175.85z"/><path fill="#FFF" d="M352.5,185.95c-2.88-0.11-4.81-1.53-4.34-4.2l3.84,0.15c-0.15,0.94,0.35,1.28,1.01,1.31
						c0.64,0.03,1.21-0.27,1.35-0.85c0.45-2-6.06-1.32-4.99-5.66c0.57-2.46,3-3.69,5.75-3.57c2.99,0.12,4.61,1.61,4.15,4.11
						l-3.92-0.16c0.15-0.78-0.27-1.16-0.93-1.19c-0.53-0.04-1.02,0.24-1.17,0.85c-0.44,1.86,5.94,1.52,4.99,5.52
						C357.72,184.43,355.56,186.07,352.5,185.95z"/><path fill="#FFF" d="M361.26,173.57l10.47,0.44l-0.67,2.77l-3.45-0.14l-2.33,9.7l-3.58-0.14l2.32-9.7l-3.42-0.14
						L361.26,173.57z"/><g><polygon fill="#EDE1DA" points="253.54 280.2 224.9 278.15 233.96 251.53 262.9 253.35"/><polygon fill="#EDE1DA" points="384.08 270.87 277.41 263.82 278.51 260.71 385.32 267.66"/><polygon fill="#EDE1DA" points="379.5 282.71 273.33 275.31 274.43 272.22 380.73 279.53"/><polygon fill="#EDE1DA" points="237.01 327.55 208.93 325.11 217.73 299.24 246.12 301.46"/><polygon fill="#EDE1DA" points="364.91 320.4 260.37 311.9 261.44 308.88 366.11 317.29"/><polygon fill="#EDE1DA" points="360.46 331.89 256.41 323.07 257.47 320.07 361.66 328.81"/><g><polygon fill="#EDE1DA" points="220.95 373.57 193.39 370.78 201.95 345.61 229.8 348.21"/><polygon fill="#EDE1DA" points="346.3 368.49 243.81 358.63 244.85 355.7 347.47 365.47"/><polygon fill="#EDE1DA" points="341.98 379.65 239.96 369.48 241 366.57 343.14 376.65"/></g><g><polygon fill="#EDE1DA" points="400.1 229.46 243.59 221.08 244.66 217.94 401.37 226.17"/><polygon fill="#EDE1DA" points="395.41 241.59 239.64 232.68 240.7 229.57 396.67 238.33"/></g></g><g><path fill="#323042" d="M298.23,124.93c3.73-11.17,14.43-19.05,26.68-18.5c12.2,0.55,21.93,9.29,24.42,20.66l22.17,0.94
				c2.71,0.11,4.74,2.44,4.53,5.18l-1.26,16.81c-0.2,2.7-2.54,4.8-5.22,4.7l-94.81-3.67c-2.75-0.11-4.91-2.41-4.82-5.15l0.53-17.07
				c0.09-2.79,2.41-4.96,5.19-4.84L298.23,124.93z"/><path fill="#FFF" d="M314.32,125.74c-0.26,5.31,3.78,9.77,9.02,9.99c5.23,0.21,9.72-3.89,10.02-9.19
				c0.3-5.32-3.72-9.84-8.99-10.06C319.09,116.24,314.59,120.4,314.32,125.74z"/></g></g><g><path fill="#D75967" d="M263.99,362.51l-2.17,1.19l2.11,4.91l-2.61,1.42l-5.39-12.67l4.71-2.59c3.08-1.7,5.37-0.86,6.33,1.31
				C267.81,357.99,267.33,360.68,263.99,362.51z M262.99,360.52c1.46-0.8,1.8-1.86,1.31-2.98c-0.5-1.15-1.44-1.48-2.89-0.68
				l-2.04,1.12l1.57,3.66L262.99,360.52z"/><path fill="#D75967" d="M280.69,359.61c-3.7,2.02-7.92,0.97-9.62-2.85c-1.67-3.76,0.12-8.04,3.76-10.04
				c3.68-2.03,7.83-1.02,9.57,2.72C286.16,353.23,284.42,357.57,280.69,359.61z M279.65,357.32c2.36-1.29,3.24-3.84,2.06-6.4
				c-1.17-2.55-3.52-3.25-5.86-1.96c-2.35,1.3-3.25,3.78-2.1,6.33C274.9,357.86,277.27,358.63,279.65,357.32z"/><path fill="#D75967" d="M295.85,351.32c-2.75,1.5-5.52,1.28-6.68-1.09l2.83-1.55c0.56,0.97,1.57,1.26,2.8,0.58
				c1.25-0.68,1.68-1.72,1.25-2.62c-1.3-2.71-7.3,2.64-9.41-1.91c-1.05-2.24,0.21-4.63,2.89-6.11c2.67-1.47,5.12-1.19,6.37,0.95
				l-2.89,1.59c-0.45-0.78-1.45-1.04-2.58-0.44c-1.04,0.53-1.58,1.43-1.1,2.44c1.19,2.5,7.25-2.59,9.38,1.82
				C299.67,346.96,298.86,349.67,295.85,351.32z"/><path fill="#D75967" d="M298.56,333.86l2.63-1.45l6.18,12.45l-2.67,1.46L298.56,333.86z"/><path fill="#D75967" d="M304.96,330.33l9.66-5.32l1.02,1.98l-3.52,1.94l5.34,10.42l-2.69,1.47l-5.29-10.43l-3.51,1.93
				L304.96,330.33z"/><path fill="#D75967" d="M318.45,322.89l2.66-1.46l6.52,12.35l-2.7,1.48L318.45,322.89z"/><path fill="#D75967" d="M334.76,313.9l2.85-1.57l1.83,14.99l-3.3,1.81l-11.55-9.62l2.86-1.57l8.97,7.73L334.76,313.9z"/><path fill="#D75967" d="M350.06,308.03l-5.12,2.82l1.73,3.05l4.56-2.5l1.12,1.94l-4.57,2.51l1.85,3.26l5.18-2.84l1.16,2.02
				l-7.93,4.34l-6.89-12.27l7.79-4.3L350.06,308.03z"/><g><path fill="#D75967" d="M250.15,382.94c-1.26,0-2.4-0.72-2.91-1.97l-7.63-18.91c-0.34-0.84-0.33-1.81,0.04-2.74
				c0.36-0.92,1.03-1.69,1.88-2.16l116.6-64.57c0.91-0.5,1.95-0.67,2.93-0.46c0.98,0.21,1.79,0.76,2.27,1.56l10.85,17.98
				c1.05,1.73,0.32,4.02-1.63,5.07l-120.7,65.75C251.3,382.8,250.71,382.94,250.15,382.94z M359.94,293.31
				c-0.4,0.03-0.8,0.14-1.18,0.34l-116.78,64.63c-0.55,0.3-0.98,0.8-1.21,1.39c-0.23,0.6-0.24,1.22-0.02,1.76l7.66,18.9
				c0.47,1.17,1.8,1.61,2.98,0.98l120.51-65.7c1.25-0.68,1.72-2.15,1.05-3.26l-10.82-17.99
				C361.68,293.63,360.82,293.25,359.94,293.31z"/></g></g><g><circle cx="284.4" cy="237.75" r="37.66" fill="#FFF"/><ellipse cx="268.97" cy="223.22" fill="#D75967" rx="5.37" ry="3.3"/><ellipse cx="268.97" cy="223.22" fill="#D75967" rx="3.96" ry="1.89"/><ellipse cx="268.97" cy="223.22" fill="#323042" rx="2.4" ry="1.14"/><ellipse cx="302.3" cy="253.5" fill="#D75967" rx="5.37" ry="3.3"/><ellipse cx="302.3" cy="253.5" fill="#D75967" rx="3.96" ry="1.89"/><ellipse cx="302.3" cy="253.5" fill="#323042" rx="2.4" ry="1.14"/><ellipse cx="262.48" cy="240.29" fill="#D75967" rx="5.37" ry="3.3"/><ellipse cx="262.48" cy="240.29" fill="#D75967" rx="3.96" ry="1.89"/><ellipse cx="262.48" cy="240.29" fill="#323042" rx="2.4" ry="1.14"/><g><ellipse cx="273.22" cy="251.12" fill="#D75967" rx="6.22" ry="3.82" transform="rotate(-25.689 273.223 251.12)"/><ellipse cx="273.22" cy="251.12" fill="#D75967" rx="4.59" ry="2.19" transform="rotate(-25.689 273.223 251.12)"/><ellipse cx="273.22" cy="251.12" fill="#323042" rx="2.78" ry="1.32" transform="rotate(-25.689 273.223 251.12)"/></g><g><ellipse cx="301.51" cy="225.3" fill="#D75967" rx="3.59" ry="5.84" transform="rotate(-38.516 301.522 225.312)"/><ellipse cx="301.51" cy="225.3" fill="#D75967" rx="2.05" ry="4.31" transform="rotate(-38.516 301.522 225.312)"/><ellipse cx="301.51" cy="225.3" fill="#323042" rx="1.24" ry="2.61" transform="rotate(-38.516 301.522 225.312)"/></g><g><ellipse cx="285.81" cy="257.42" fill="#D75967" rx="2.03" ry="3.3" transform="rotate(-65.293 285.804 257.407)"/><ellipse cx="285.81" cy="257.42" fill="#D75967" rx="1.16" ry="2.43" transform="rotate(-65.293 285.804 257.407)"/><ellipse cx="285.81" cy="257.42" fill="#323042" rx=".7" ry="1.47" transform="rotate(-65.293 285.804 257.407)"/></g><g><ellipse cx="277.55" cy="233.49" fill="#D75967" rx="2.03" ry="3.3" transform="rotate(-65.293 277.546 233.478)"/><ellipse cx="277.55" cy="233.49" fill="#D75967" rx="1.16" ry="2.43" transform="rotate(-65.293 277.546 233.478)"/><ellipse cx="277.55" cy="233.49" fill="#323042" rx=".7" ry="1.47" transform="rotate(-65.293 277.546 233.478)"/></g><g><path fill="#D75967" d="M293.18,231.16c0.73-0.08,1.48-0.12,2.2,0.05c1.36,0.32,2.43,1.38,3.21,2.53
								c0.78,1.16,1.35,2.45,2.14,3.6c0.45,0.66,0.99,1.29,1.21,2.06c0.37,1.27-0.22,2.69-1.21,3.56c-0.99,0.87-2.32,1.27-3.64,1.43
								s-2.64,0.1-3.96,0.17c-1.73,0.09-3.52,0.41-5.15-0.17c-2.02-0.72-3.35-2.66-4.14-4.65c-0.45-1.13-0.79-2.54-0.15-3.66
								c0.55-0.95,1.53-1.13,2.36-1.72c1.13-0.8,1.96-1.75,3.27-2.31C290.54,231.55,291.87,231.3,293.18,231.16z"/><path fill="#323042" d="M287.64,234.85c0.43-0.23,0.92-0.34,1.4-0.45c0.99-0.23,1.98-0.45,2.99-0.47
								c1.01-0.02,2.05,0.18,2.89,0.75c0.52,0.35,0.95,0.85,1.23,1.41c0.08,0.17,0.16,0.36,0.12,0.54
								c-0.09,0.45-0.69,0.54-1.15,0.53c-0.61-0.02-1.22-0.03-1.83-0.05c-0.57-0.01-1.15-0.03-1.69,0.13s-1.06,0.53-1.25,1.07
								c-0.42,1.21,0.94,2.61,0.32,3.74c-0.4,0.73-1.48,0.84-2.2,0.41c-0.72-0.43-1.13-1.22-1.42-1.99
								C286.35,238.61,285.24,236.11,287.64,234.85z"/><path fill="#D75967" d="M293.93,239c0.3,0.07,0.62,0.16,0.85,0.37c0.23,0.22,0.32,0.61,0.11,0.84
							c-0.11,0.12-0.27,0.18-0.44,0.2c-0.47,0.06-0.99-0.2-1.14-0.65c-0.05-0.16-0.05-0.34,0.05-0.47c0.15-0.18,0.44-0.18,0.6-0.34"/><path fill="#D75967" d="M297.5,238.25c0.09-0.07,0.19-0.15,0.3-0.17s0.25,0.04,0.28,0.15c0.01,0.06-0.01,0.12-0.04,0.18
							c-0.09,0.15-0.28,0.25-0.45,0.19c-0.06-0.02-0.11-0.06-0.13-0.12c-0.02-0.08,0.04-0.17,0.03-0.26"/><path fill="#D75967" d="M294.27,242.55c0.09-0.07,0.19-0.15,0.3-0.17c0.11-0.02,0.25,0.04,0.28,0.15
							c0.01,0.06-0.01,0.12-0.04,0.18c-0.09,0.15-0.28,0.25-0.45,0.19c-0.06-0.02-0.11-0.06-0.13-0.12
							c-0.02-0.08,0.04-0.17,0.03-0.26"/><path fill="#D75967" d="M292.29,232.5c0.09-0.07,0.19-0.15,0.3-0.17s0.25,0.04,0.28,0.15c0.01,0.06-0.01,0.12-0.04,0.18
							c-0.09,0.15-0.28,0.25-0.45,0.19c-0.06-0.02-0.11-0.06-0.13-0.12c-0.02-0.08,0.04-0.17,0.03-0.26"/></g><g><path fill="#D75967" d="M287.09,218.94c-0.33-0.02-0.66-0.05-0.97-0.17c-0.58-0.24-0.98-0.77-1.25-1.34
								c-0.27-0.56-0.43-1.17-0.7-1.74c-0.15-0.32-0.35-0.64-0.39-0.99c-0.08-0.59,0.28-1.17,0.78-1.49c0.5-0.32,1.11-0.4,1.7-0.38
								c0.59,0.02,1.17,0.14,1.76,0.2c0.77,0.08,1.58,0.06,2.26,0.43c0.84,0.45,1.3,1.4,1.51,2.34c0.12,0.53,0.18,1.18-0.18,1.63
								c-0.31,0.38-0.75,0.39-1.16,0.6c-0.55,0.28-0.99,0.64-1.6,0.8C288.28,218.95,287.68,218.97,287.09,218.94z"/><path fill="#323042" d="M289.78,217.69c-0.21,0.07-0.43,0.09-0.65,0.1c-0.45,0.03-0.91,0.06-1.35,0
								c-0.45-0.06-0.89-0.22-1.22-0.53c-0.21-0.19-0.36-0.44-0.45-0.71c-0.03-0.08-0.04-0.17-0.02-0.25
								c0.07-0.19,0.34-0.19,0.54-0.16c0.27,0.05,0.54,0.1,0.8,0.15c0.25,0.05,0.51,0.09,0.76,0.06c0.25-0.03,0.5-0.16,0.62-0.39
								c0.27-0.51-0.24-1.22,0.11-1.67c0.23-0.29,0.71-0.27,1-0.03c0.29,0.24,0.41,0.61,0.49,0.98
								C290.61,216.12,290.93,217.3,289.78,217.69z"/><path fill="#323042" d="M287.29,215.43c-0.13-0.05-0.26-0.11-0.35-0.22c-0.09-0.11-0.1-0.29,0.01-0.38
							c0.06-0.05,0.13-0.06,0.21-0.06c0.21,0.01,0.42,0.16,0.46,0.37c0.01,0.07,0,0.15-0.06,0.2c-0.08,0.07-0.2,0.05-0.29,0.11"/><path fill="#D75967" d="M285.67,215.51c-0.04,0.03-0.09,0.05-0.14,0.05c-0.05,0-0.11-0.04-0.11-0.09
							c0-0.03,0.01-0.05,0.03-0.07c0.05-0.06,0.14-0.09,0.21-0.05c0.02,0.01,0.05,0.03,0.05,0.06c0,0.04-0.03,0.07-0.03,0.11"/><path fill="#D75967" d="M287.39,213.83c-0.04,0.03-0.09,0.05-0.14,0.05c-0.05,0-0.11-0.04-0.11-0.09
							c0-0.03,0.01-0.05,0.03-0.07c0.05-0.06,0.14-0.09,0.21-0.05c0.02,0.01,0.05,0.03,0.05,0.06c0,0.04-0.03,0.07-0.03,0.11"/><path fill="#D75967" d="M287.57,218.41c-0.04,0.03-0.09,0.05-0.14,0.05s-0.11-0.04-0.11-0.09c0-0.03,0.01-0.05,0.03-0.07
							c0.05-0.06,0.14-0.09,0.21-0.05c0.02,0.01,0.05,0.03,0.05,0.06c0,0.04-0.03,0.07-0.03,0.11"/></g><path fill="#323042" d="M316.62,260.67c12.54-18.13,8.01-43-10.12-55.55c-18.14-12.55-43.01-8.01-55.56,10.13
					c-11.68,16.89-8.55,39.63,6.58,52.8c1.12,0.97,2.3,1.89,3.55,2.75c1.25,0.86,2.52,1.64,3.83,2.35
					C282.57,282.65,304.94,277.56,316.62,260.67z M257.24,219.59c10.14-14.66,30.24-18.32,44.9-8.18
					c14.66,10.15,18.32,30.25,8.18,44.9c-10.14,14.66-30.24,18.32-44.9,8.18C250.77,254.36,247.11,234.26,257.24,219.59z"/><rect width="4.66" height="41.78" x="245.7" y="263.75" fill="#323042" transform="rotate(34.674 248.02 284.61)"/><path fill="#D75967" d="M232.07,311.78l-3.81-2.64c-0.49-0.34-0.62-1.02-0.27-1.51l17.75-25.67c0.34-0.49,1.02-0.62,1.51-0.27
					l3.81,2.64c0.49,0.34,0.62,1.02,0.27,1.51l-17.75,25.67C233.24,312,232.57,312.12,232.07,311.78z"/><g><path fill="#EAA678" d="M229.66,308.67c2.15-0.23,4.34,0.59,5.29,0.49c0,0,2.26-0.53,4.25-1.35c1.98-0.79,5.74,0.16,6.95-1.05
				c1.23-1.22,0.44-2.81,0.44-2.81s0.34-0.2,0.77-0.58c0.88-0.77,2.17-2.29,1.66-4.27c0,0,0,0,0.01,0c0.19-0.14,2.14-1.6,1.95-3.78
				c-0.03-0.37-0.12-0.75-0.29-1.16c-0.06-0.14-0.13-0.28-0.21-0.41c-0.13-0.25-0.28-0.48-0.47-0.73c0,0,2.4-1.6,2.02-3.79
				c-0.05-0.47-0.25-0.95-0.6-1.44c0,0-1.66-0.58-3.8-1.07c-0.37-0.1-0.74-0.18-1.13-0.26c-2.37-0.52-5.02-0.85-6.57-0.26
				c-0.07,0.03-0.15,0.06-0.23,0.11c-1.91,0.89-5.83,4.58-9.01,7.77l-0.01,0c-0.58,0.58-1.13,1.14-1.64,1.66l0.13,2.76l0.19,3.82
				l0.02,0.48l0.06,1.25L229.66,308.67z"/><polygon fill="#EAA678" points="229.04 295.72 222.43 302.04 212.6 320.53 220.66 323.88 228.14 326.43 237.58 307.55"/><path fill="none" stroke="#323042" stroke-linecap="round" stroke-linejoin="round" stroke-miterlimit="10" stroke-width=".629" d="
				M249.99,292.99c0,0-3.64-1.5-7.61-1.78"/><path fill="none" stroke="#323042" stroke-linecap="round" stroke-linejoin="round" stroke-miterlimit="10" stroke-width=".629" d="
				M249.04,299.09c0,0-5.02-2.48-8.31-2.49"/><path fill="none" stroke="#323042" stroke-linecap="round" stroke-linejoin="round" stroke-miterlimit="10" stroke-width=".629" d="
				M246.57,303.95c0,0-3.82-2.02-7.91-1.38"/></g><g><path fill="#EAA678" d="M138.35,232c0,0,5.23-7.7,6.36-16.23c1.13-8.53,5.27-34.89,20.2-32.38s19.95,13.3,20.08,21.33
						c0.13,8.03-2.26,11.17-1.88,13.93s2.76,6.9-0.38,8.16c0,0-2.01,2.64-2.38,5.77c-0.38,3.14-1,10.79-6.02,10.54
						c-5.02-0.25-9.79-1.88-9.79-1.88l-1.76,5.65L138.35,232z"/><path fill="#323042" d="M156,223.18c-3.57,1.74-12.8,2.38-14.05,1.88s-7.28-12.8-7.78-23.34c-0.5-10.54,7.03-24.22,18.57-25.72
						c11.54-1.51,18.7,5.14,18.7,5.14s19.02-5.8,19.67,6.63c0.26,5.04-6.61,11.44-6.61,11.44s-5.4-2.26-6.4,1
						c-1,3.26-1.13,14.93-2.76,15.56c-1.63,0.63-3.01-11.92-6.4-11.17C165.54,205.36,160.64,220.92,156,223.18z"/><path fill="#EAA678" stroke="#323042" stroke-miterlimit="10" stroke-width=".889" d="M172.44,208.58
						c0,0-1.08-4.22-3.87-4.44c-3.64-0.29-4.85,5.11-4.35,8.38c0.5,3.26,2.76,7.84,2.76,7.84"/><path fill="#FFF" d="M129.25,236.93c0,0,7.69-6.22,9.14-6.67s7.15-1.38,16.25,2.9s13.19,14.74,14.19,16.38
					s-11.01,0.37-11.01,0.37s-14.2-5.19-14.47-5.37S129.25,236.93,129.25,236.93z"/><path fill="#6E59D3" d="M191.55,429.92H93.61c-2.03-19.51-2.55-39.84,1.22-54.1c9.66-36.65,79.45-3.27,79.45-3.27
						S185.13,407.15,191.55,429.92z"/><line x1="137.73" x2="133.81" y1="429.31" y2="417.23" fill="none" stroke="#323042" stroke-miterlimit="10" stroke-width=".967"/><polygon fill="#6E59D3" points="176.83 340.86 175.72 377.77 98.72 377.77 124.09 351.22 155.66 338.53"/><path fill="#FFF" d="M179.69,307.95c-0.01,0.06-0.01,0.09-0.01,0.09l-2.85,32.82c0,0-6.22,54.51-14.68,66.71
					c-14.17,20.44-56.74,0.79-74.64,9.44c-7.22,3.49,6.62-119.33,8.08-137.9c1.46-18.57,12.93-35.94,33.68-42.18
					c0,0,13.51-0.14,22.38,3.28c8.87,3.41,20.34,10.65,20.34,10.65s4.86,1.39,10.57,5.35c0.07,0.04,0.16,0.1,0.24,0.16
					C183.37,267.86,179.88,305.75,179.69,307.95z"/><path fill="none" stroke="#323042" stroke-linecap="round" stroke-linejoin="round" stroke-miterlimit="10" stroke-width=".579" d="
					M129.25,236.93c0,0,13.51-0.14,22.39,3.28c8.87,3.41,16.41,8.54,16.41,8.54"/></g><path fill="#FFF" d="M182.8,256.36c0,0,7.38,4.57,8.26,18.74c0.89,14.16,4.03,45.43,4.03,45.43l28.13-19.77
			c0,0,14.75,6.79,16.23,16.23c0,0-42.48,47.21-57.83,43.37s-19.32-36.99-18.39-60.28C165,255.82,182.8,256.36,182.8,256.36z"/><path fill="none" stroke="#323042" stroke-linecap="round" stroke-linejoin="round" stroke-miterlimit="10" stroke-width=".579" d="
			M192.91,298.47c0.89,14.16,2.19,22.07,2.19,22.07l28.13-19.77"/><path fill="none" stroke="#323042" stroke-linecap="round" stroke-linejoin="round" stroke-miterlimit="10" stroke-width=".579" d="
			M195.09,320.53c0,0,1.57,2.95-1.08,10.62"/><path fill="none" stroke="#323042" stroke-linecap="round" stroke-linejoin="round" stroke-miterlimit="10" stroke-width=".579" d="
			M181.62,360.36c-15.34-3.84-19.32-36.99-18.39-60.28c0.25-6.33,0.84-11.75,1.65-16.38"/></g><path fill="#D75967" d="M457.6,360.96c0,0-69.71-65.7-73.71-95.35c-4.01-29.65,8.41-44.07,32.45-44.07
		c24.04,0,40.06,21.23,33.25,46.47s-75.32,92.14-75.32,92.14l-17.63-19.23c0,0,84.53-76.52,82.53-88.54s-24.44-12.42-24.44-12.42
		s-19.63,0-19.63,12.02c0,12.02,80.52,90.54,80.52,90.54L457.6,360.96z"/><line x1="417.03" x2="431.1" y1="281.78" y2="297.16" fill="none" stroke="#323042" stroke-linecap="round" stroke-linejoin="round" stroke-miterlimit="10" stroke-width=".579"/><line x1="401.33" x2="415.56" y1="298.9" y2="316.14" fill="none" stroke="#323042" stroke-linecap="round" stroke-linejoin="round" stroke-miterlimit="10" stroke-width=".579"/></svg>