<svg width="32" height="32" viewBox="0 0 32 32" fill="none" xmlns="http://www.w3.org/2000/svg">
<rect width="32" height="32" rx="16" fill="white"/>
<path d="M16.0003 20.8332C13.3337 20.8332 11.167 18.6665 11.167 15.9998C11.167 13.3332 13.3337 11.1665 16.0003 11.1665C18.667 11.1665 20.8337 13.3332 20.8337 15.9998C20.8337 18.6665 18.667 20.8332 16.0003 20.8332ZM16.0003 12.1665C13.887 12.1665 12.167 13.8865 12.167 15.9998C12.167 18.1132 13.887 19.8332 16.0003 19.8332C18.1137 19.8332 19.8337 18.1132 19.8337 15.9998C19.8337 13.8865 18.1137 12.1665 16.0003 12.1665Z" fill="#1E1E1E"/>
<path d="M16.0003 23.3065C15.6337 23.3065 15.3337 23.0332 15.3337 22.6665V22.6132C15.3337 22.2465 15.6337 21.9465 16.0003 21.9465C16.367 21.9465 16.667 22.2465 16.667 22.6132C16.667 22.9798 16.367 23.3065 16.0003 23.3065ZM20.7603 21.4265C20.587 21.4265 20.4203 21.3598 20.287 21.2332L20.2003 21.1465C19.9403 20.8865 19.9403 20.4665 20.2003 20.2065C20.4603 19.9465 20.8803 19.9465 21.1403 20.2065L21.227 20.2932C21.487 20.5532 21.487 20.9732 21.227 21.2332C21.1003 21.3598 20.9337 21.4265 20.7603 21.4265ZM11.2403 21.4265C11.067 21.4265 10.9003 21.3598 10.767 21.2332C10.507 20.9732 10.507 20.5532 10.767 20.2932L10.8537 20.2065C11.1137 19.9465 11.5337 19.9465 11.7937 20.2065C12.0537 20.4665 12.0537 20.8865 11.7937 21.1465L11.707 21.2332C11.5803 21.3598 11.407 21.4265 11.2403 21.4265ZM22.667 16.6665H22.6137C22.247 16.6665 21.947 16.3665 21.947 15.9998C21.947 15.6332 22.247 15.3332 22.6137 15.3332C22.9803 15.3332 23.307 15.6332 23.307 15.9998C23.307 16.3665 23.0337 16.6665 22.667 16.6665ZM9.38699 16.6665H9.33366C8.96699 16.6665 8.66699 16.3665 8.66699 15.9998C8.66699 15.6332 8.96699 15.3332 9.33366 15.3332C9.70033 15.3332 10.027 15.6332 10.027 15.9998C10.027 16.3665 9.75366 16.6665 9.38699 16.6665ZM20.6737 11.9932C20.5003 11.9932 20.3337 11.9265 20.2003 11.7998C19.9403 11.5398 19.9403 11.1198 20.2003 10.8598L20.287 10.7732C20.547 10.5132 20.967 10.5132 21.227 10.7732C21.487 11.0332 21.487 11.4532 21.227 11.7132L21.1403 11.7998C21.0137 11.9265 20.847 11.9932 20.6737 11.9932ZM11.327 11.9932C11.1537 11.9932 10.987 11.9265 10.8537 11.7998L10.767 11.7065C10.507 11.4465 10.507 11.0265 10.767 10.7665C11.027 10.5065 11.447 10.5065 11.707 10.7665L11.7937 10.8532C12.0537 11.1132 12.0537 11.5332 11.7937 11.7932C11.667 11.9265 11.4937 11.9932 11.327 11.9932ZM16.0003 10.0265C15.6337 10.0265 15.3337 9.75317 15.3337 9.3865V9.33317C15.3337 8.9665 15.6337 8.6665 16.0003 8.6665C16.367 8.6665 16.667 8.9665 16.667 9.33317C16.667 9.69984 16.367 10.0265 16.0003 10.0265Z" fill="#1E1E1E"/>
</svg>
